<?xml version="1.0" encoding="UTF-8"?>
<svg id="Layer_1" data-name="Layer 1" xmlns="http://www.w3.org/2000/svg" version="1.1" viewBox="0 0 48 48">
  <defs>
    <style>
      .cls-1 {
        fill: #67a580;
      }

      .cls-1, .cls-2 {
        stroke-width: 0px;
      }

      .cls-2 {
        fill: #fff;
      }
    </style>
  </defs>
  <path class="cls-1" d="M32.5,21.6l-8.5-8.6-8.5,8.6c-1,1-1.5,2.3-1.5,3.8s.5,2.7,1.5,3.8c1,1,2.3,1.6,3.7,1.6s2.6-.5,3.5-1.4c-.4,3.3-2.1,5.7-2.1,5.7h6.8s-1.7-2.4-2.1-5.7c1,.9,2.2,1.4,3.5,1.4s2.7-.5,3.7-1.5c1-1,1.5-2.3,1.5-3.7s-.5-2.7-1.5-3.8h0Z"/>
  <path class="cls-2" d="M20.3,26.5l3.1-8h1.4l3.1,8h-1.5l-.6-1.8h-3.3l-.6,1.8h-1.5ZM22.9,23.3h2.2l-1.1-3.3-1.1,3.3h0Z"/>
</svg>